<?xml version="1.0" encoding="UTF-8"?>
<svg id="Livello_1" data-name="Livello 1" xmlns="http://www.w3.org/2000/svg" viewBox="0 0 338.35 369.2">
  <defs>
    <style>
      .cls-1 {
        fill: #143d59;
      }

      .cls-2 {
        isolation: isolate;
      }

      .cls-3 {
        fill: #f4b41d;
      }
    </style>
  </defs>
  <g class="cls-2">
    <path class="cls-1" d="m34.07,369.2h-11.99c-5.9,0-10.33-1.48-13.46-4.61s-4.8-7.56-4.8-13.46v-35.04c0-5.9,1.66-10.33,4.8-13.46,3.14-3.14,7.75-4.61,13.46-4.61h11.99c5.72,0,10.14,1.48,13.46,4.61,3.14,3.14,4.8,7.56,4.8,13.46v5.16c0,1.66-.74,2.4-2.4,2.4h-9.22c-1.48,0-2.4-.74-2.4-2.4v-4.61c0-2.4-.55-4.06-1.48-4.98s-2.77-1.48-4.98-1.48h-7.56c-2.21,0-3.87.55-4.98,1.48s-1.48,2.77-1.48,4.98v33.75c0,2.21.55,3.87,1.48,4.98.92,1.11,2.58,1.48,4.98,1.48h7.56c2.4,0,4.06-.55,4.98-1.48.92-1.11,1.48-2.77,1.48-4.98v-4.61c0-1.66.74-2.4,2.4-2.4h9.22c1.66,0,2.4.74,2.4,2.4v5.16c0,5.9-1.66,10.33-4.8,13.46-3.14,3.14-7.75,4.8-13.46,4.8Z"/>
    <path class="cls-1" d="m94.02,369.2h-12.36c-5.9,0-10.33-1.48-13.46-4.61s-4.8-7.56-4.8-13.46v-35.04c0-5.9,1.66-10.33,4.8-13.46,3.14-3.14,7.75-4.61,13.46-4.61h12.36c5.9,0,10.33,1.48,13.46,4.61s4.8,7.56,4.8,13.46v35.04c0,5.9-1.66,10.33-4.8,13.46-3.14,2.95-7.75,4.61-13.46,4.61Zm-10.14-12.17h7.93c2.4,0,4.06-.55,4.98-1.48.92-1.11,1.48-2.77,1.48-4.98v-33.75c0-2.4-.55-4.06-1.48-4.98s-2.77-1.48-4.98-1.48h-7.93c-2.4,0-4.06.55-4.98,1.48s-1.48,2.77-1.48,4.98v33.75c0,2.21.55,3.87,1.48,4.98.92.92,2.58,1.48,4.98,1.48Z"/>
    <path class="cls-1" d="m164.29,369.2h-36.33c-1.48,0-2.4-.74-2.4-2.4v-66.58c0-1.48.74-2.4,2.4-2.4h9.41c1.48,0,2.4.74,2.4,2.4v55.33c0,.74.37,1.29,1.29,1.29h23.42c1.48,0,2.21.74,2.21,2.4v7.56c-.18,1.66-.92,2.4-2.4,2.4Z"/>
    <path class="cls-1" d="m213.9,369.2h-36.33c-1.48,0-2.4-.74-2.4-2.4v-66.58c0-1.48.74-2.4,2.4-2.4h9.41c1.48,0,2.4.74,2.4,2.4v55.33c0,.74.37,1.29,1.29,1.29h23.42c1.48,0,2.21.74,2.21,2.4v7.56c-.18,1.66-.92,2.4-2.4,2.4Z"/>
    <path class="cls-1" d="m232.35,369.2h-10.7c-.74,0-1.29-.18-1.48-.55s-.18-.92,0-1.84l17.52-66.58c.55-1.48,1.66-2.4,3.32-2.4h14.76c1.84,0,2.95.74,3.32,2.4l17.52,66.58c.18.74.18,1.48.18,1.84-.18.37-.55.55-1.48.55h-10.7c-1.29,0-2.03-.74-2.4-2.4l-3.14-12.17h-21.58l-3.14,12.17c-.18.92-.37,1.48-.74,1.84,0,.37-.55.55-1.29.55Zm16.05-57.73l-7.93,31.91h16.41l-7.93-31.91h-.55Z"/>
    <path class="cls-1" d="m286.57,366.8v-66.58c0-1.48.74-2.4,2.4-2.4h26.56c5.9,0,10.33,1.48,13.46,4.61,3.14,3.14,4.8,7.56,4.8,13.28v4.61c0,3.14-.74,5.72-2.21,7.75-1.48,2.03-3.69,3.5-6.46,4.43,1.84.18,3.5.74,4.98,1.84,1.48.92,2.58,2.21,3.5,3.87s1.29,3.69,1.29,6.27v6.64c0,5.9-1.66,10.33-4.8,13.28-3.14,3.14-7.56,4.61-13.46,4.61h-27.67c-1.66.18-2.4-.55-2.4-2.21Zm15.31-39.84h11.25c2.4,0,4.06-.55,5.16-1.48,1.11-.92,1.66-2.58,1.66-4.98v-4.24c0-2.4-.55-4.06-1.66-4.98s-2.77-1.48-5.16-1.48h-11.44c-.74,0-1.29.37-1.29,1.29v14.76c.18.74.55,1.11,1.48,1.11Zm0,30.43h12.36c2.4,0,4.06-.55,5.16-1.48,1.11-.92,1.66-2.58,1.66-4.98v-6.46c0-2.21-.55-3.87-1.66-4.8s-2.95-1.48-5.35-1.48h-12.17c-.74,0-1.29.37-1.29,1.29v16.78c0,.74.37,1.11,1.29,1.11Z"/>
  </g>
  <path class="cls-3" d="m333.79,93.28L245.07,4.56c-6.09-6.09-16.05-6.09-22.13,0l-125.79,125.79c-6.09,6.09-6.09,16.05,0,22.13l88.71,88.71c6.09,6.09,16.05,6.09,22.13,0l125.79-125.79c6.09-6.09,6.09-16.05,0-22.13Zm-129.48,77.65c-4.06,4.06-10.7,4.06-14.76,0l-22.13-22.13c-4.06-4.06-4.06-10.7,0-14.76l59.2-59.2c4.06-4.06,10.7-4.06,14.76,0l29.51,29.51-66.58,66.58h0Z"/>
  <path class="cls-1" d="m122.97,178.31l-11.25,11.25c-4.06,4.06-10.51,4.06-14.57,0l-29.69-29.69,66.58-66.58c4.06-4.06,10.51-4.06,14.57,0l22.32,22.32c4.06,4.06,4.06,10.51,0,14.57l-11.25,11.25,29.51,29.51c4.06,4.06,10.7,4.06,14.76,0l48.14-48.14L152.12,22.82c-6.09-6.09-15.86-6.09-21.95,0L4.56,148.8c-6.09,6.09-6.09,15.86,0,21.95l88.9,88.9c6.09,6.09,15.86,6.09,21.95,0l44.45-44.45-36.89-36.89h0Z"/>
</svg>