<svg id="visual" viewBox="0 0 900 600" width="900" height="600" xmlns="http://www.w3.org/2000/svg" xmlns:xlink="http://www.w3.org/1999/xlink" version="1.1"><rect x="0" y="0" width="900" height="600" fill="#001220"></rect><path d="M0 372L21.5 368.7C43 365.3 86 358.7 128.8 360.5C171.7 362.3 214.3 372.7 257.2 378.3C300 384 343 385 385.8 389.2C428.7 393.3 471.3 400.7 514.2 407.8C557 415 600 422 642.8 418.7C685.7 415.3 728.3 401.7 771.2 391.3C814 381 857 374 878.5 370.5L900 367L900 601L878.5 601C857 601 814 601 771.2 601C728.3 601 685.7 601 642.8 601C600 601 557 601 514.2 601C471.3 601 428.7 601 385.8 601C343 601 300 601 257.2 601C214.3 601 171.7 601 128.8 601C86 601 43 601 21.5 601L0 601Z" fill="#8b478a"></path><path d="M0 468L21.5 464.8C43 461.7 86 455.3 128.8 445.8C171.7 436.3 214.3 423.7 257.2 426.8C300 430 343 449 385.8 449.3C428.7 449.7 471.3 431.3 514.2 419.3C557 407.3 600 401.7 642.8 410.7C685.7 419.7 728.3 443.3 771.2 447.7C814 452 857 437 878.5 429.5L900 422L900 601L878.5 601C857 601 814 601 771.2 601C728.3 601 685.7 601 642.8 601C600 601 557 601 514.2 601C471.3 601 428.7 601 385.8 601C343 601 300 601 257.2 601C214.3 601 171.7 601 128.8 601C86 601 43 601 21.5 601L0 601Z" fill="#763d77"></path><path d="M0 444L21.5 452.8C43 461.7 86 479.3 128.8 480.3C171.7 481.3 214.3 465.7 257.2 462.3C300 459 343 468 385.8 471.7C428.7 475.3 471.3 473.7 514.2 468.7C557 463.7 600 455.3 642.8 457.3C685.7 459.3 728.3 471.7 771.2 479C814 486.3 857 488.7 878.5 489.8L900 491L900 601L878.5 601C857 601 814 601 771.2 601C728.3 601 685.7 601 642.8 601C600 601 557 601 514.2 601C471.3 601 428.7 601 385.8 601C343 601 300 601 257.2 601C214.3 601 171.7 601 128.8 601C86 601 43 601 21.5 601L0 601Z" fill="#623364"></path><path d="M0 521L21.5 523C43 525 86 529 128.8 529C171.7 529 214.3 525 257.2 521.5C300 518 343 515 385.8 511.7C428.7 508.3 471.3 504.7 514.2 506.7C557 508.7 600 516.3 642.8 519.5C685.7 522.7 728.3 521.3 771.2 518.7C814 516 857 512 878.5 510L900 508L900 601L878.5 601C857 601 814 601 771.2 601C728.3 601 685.7 601 642.8 601C600 601 557 601 514.2 601C471.3 601 428.7 601 385.8 601C343 601 300 601 257.2 601C214.3 601 171.7 601 128.8 601C86 601 43 601 21.5 601L0 601Z" fill="#4f2951"></path><path d="M0 565L21.5 563.2C43 561.3 86 557.7 128.8 555.3C171.7 553 214.3 552 257.2 553.2C300 554.3 343 557.7 385.8 555.8C428.7 554 471.3 547 514.2 544C557 541 600 542 642.8 540.3C685.7 538.7 728.3 534.3 771.2 533.8C814 533.3 857 536.7 878.5 538.3L900 540L900 601L878.5 601C857 601 814 601 771.2 601C728.3 601 685.7 601 642.8 601C600 601 557 601 514.2 601C471.3 601 428.7 601 385.8 601C343 601 300 601 257.2 601C214.3 601 171.7 601 128.8 601C86 601 43 601 21.5 601L0 601Z" fill="#3d1f3f"></path></svg>