<svg id="visual" viewBox="0 0 900 600" width="900" height="600" xmlns="http://www.w3.org/2000/svg" xmlns:xlink="http://www.w3.org/1999/xlink" version="1.1"><rect x="0" y="0" width="900" height="600" fill="#140021"></rect><path d="M0 372L53 372L53 295L106 295L106 338L159 338L159 398L212 398L212 304L265 304L265 382L318 382L318 397L371 397L371 260L424 260L424 382L476 382L476 379L529 379L529 291L582 291L582 351L635 351L635 349L688 349L688 314L741 314L741 239L794 239L794 293L847 293L847 352L900 352L900 322L900 601L900 601L847 601L847 601L794 601L794 601L741 601L741 601L688 601L688 601L635 601L635 601L582 601L582 601L529 601L529 601L476 601L476 601L424 601L424 601L371 601L371 601L318 601L318 601L265 601L265 601L212 601L212 601L159 601L159 601L106 601L106 601L53 601L53 601L0 601Z" fill="#9900ff"></path><path d="M0 423L53 423L53 425L106 425L106 352L159 352L159 443L212 443L212 303L265 303L265 304L318 304L318 397L371 397L371 373L424 373L424 337L476 337L476 299L529 299L529 320L582 320L582 306L635 306L635 275L688 275L688 284L741 284L741 417L794 417L794 278L847 278L847 273L900 273L900 286L900 601L900 601L847 601L847 601L794 601L794 601L741 601L741 601L688 601L688 601L635 601L635 601L582 601L582 601L529 601L529 601L476 601L476 601L424 601L424 601L371 601L371 601L318 601L318 601L265 601L265 601L212 601L212 601L159 601L159 601L106 601L106 601L53 601L53 601L0 601Z" fill="#8800e2"></path><path d="M0 424L53 424L53 489L106 489L106 357L159 357L159 467L212 467L212 404L265 404L265 395L318 395L318 494L371 494L371 438L424 438L424 461L476 461L476 347L529 347L529 435L582 435L582 360L635 360L635 412L688 412L688 412L741 412L741 440L794 440L794 360L847 360L847 375L900 375L900 453L900 601L900 601L847 601L847 601L794 601L794 601L741 601L741 601L688 601L688 601L635 601L635 601L582 601L582 601L529 601L529 601L476 601L476 601L424 601L424 601L371 601L371 601L318 601L318 601L265 601L265 601L212 601L212 601L159 601L159 601L106 601L106 601L53 601L53 601L0 601Z" fill="#7700c6"></path><path d="M0 529L53 529L53 513L106 513L106 457L159 457L159 517L212 517L212 461L265 461L265 505L318 505L318 507L371 507L371 511L424 511L424 419L476 419L476 439L529 439L529 479L582 479L582 433L635 433L635 407L688 407L688 429L741 429L741 489L794 489L794 426L847 426L847 472L900 472L900 537L900 601L900 601L847 601L847 601L794 601L794 601L741 601L741 601L688 601L688 601L635 601L635 601L582 601L582 601L529 601L529 601L476 601L476 601L424 601L424 601L371 601L371 601L318 601L318 601L265 601L265 601L212 601L212 601L159 601L159 601L106 601L106 601L53 601L53 601L0 601Z" fill="#6600ab"></path><path d="M0 523L53 523L53 556L106 556L106 518L159 518L159 558L212 558L212 534L265 534L265 507L318 507L318 569L371 569L371 552L424 552L424 574L476 574L476 474L529 474L529 513L582 513L582 528L635 528L635 545L688 545L688 567L741 567L741 482L794 482L794 585L847 585L847 573L900 573L900 493L900 601L900 601L847 601L847 601L794 601L794 601L741 601L741 601L688 601L688 601L635 601L635 601L582 601L582 601L529 601L529 601L476 601L476 601L424 601L424 601L371 601L371 601L318 601L318 601L265 601L265 601L212 601L212 601L159 601L159 601L106 601L106 601L53 601L53 601L0 601Z" fill="#560090"></path></svg>